<?xml version="1.0" encoding="utf-8"?>
<!-- Generator: Adobe Illustrator 27.0.1, SVG Export Plug-In . SVG Version: 6.00 Build 0)  -->
<svg version="1.1" id="Capa_1" xmlns="http://www.w3.org/2000/svg" xmlns:xlink="http://www.w3.org/1999/xlink" x="0px" y="0px"
	 viewBox="0 0 355 84" style="enable-background:new 0 0 355 84;" xml:space="preserve">
<g id="Capa_6">
	<g>
		<g>
			<path d="M352.7,31.4c-1.1-2.3-2.6-4.2-4.5-5.6c-1.9-1.5-4-2.5-6.3-3.1c-2.3-0.7-4.6-1-7-1s-4.7,0.3-7,1c-2.3,0.6-4.4,1.7-6.3,3.1
				c-1.9,1.4-3.4,3.3-4.6,5.6c-1.1,2.3-1.7,5.1-1.7,8.4s0.6,6.1,1.7,8.5c1.2,2.3,2.7,4.2,4.6,5.6c1.9,1.4,4,2.4,6.3,3
				c2.4,0.6,4.7,0.9,7,0.9s4.7-0.3,7-0.9c2.3-0.6,4.4-1.6,6.3-3c1.9-1.5,3.4-3.3,4.5-5.6c1.2-2.3,1.8-5.2,1.8-8.5
				S353.9,33.7,352.7,31.4z M346.7,45.7c-0.4,1.9-1,3.6-2,5.1c-1,1.5-2.3,2.6-3.9,3.5c-1.6,0.9-3.6,1.3-6,1.3s-4.4-0.4-6-1.3
				c-1.6-0.9-2.9-2-3.9-3.5c-1-1.5-1.7-3.2-2.1-5.1c-0.4-1.9-0.5-3.9-0.5-5.9s0.2-4,0.5-5.9c0.4-1.9,1.1-3.6,2.1-5
				c1-1.5,2.3-2.7,3.9-3.6c1.6-0.9,3.6-1.3,6-1.3s4.4,0.4,6,1.3c1.6,0.9,2.9,2.1,3.9,3.6c1,1.5,1.6,3.1,2,5c0.4,1.9,0.6,3.9,0.6,5.9
				S347.1,43.8,346.7,45.7z"/>
			<path d="M313.5,21.9c-0.3,0-0.7-0.1-1.1-0.1c-1.8,0-3.5,0.6-5.2,1.9c-1.9,1.3-3.5,3.2-4.7,5.6c0-0.4,0.1-0.7,0.1-6.4h-28
				c-2.1,0-4.2,0.2-6.1,0.7c-1.9,0.5-3.5,1.3-5,2.4c-1.4,1.1-2.5,2.4-3.4,4.1c-0.8,1.6-1.2,3.5-1.2,5.7c0,2.9,0.7,5.4,2.1,7.3
				c1.4,1.9,3.4,3.4,5.9,4.6c-0.6,0.1-1.4,0.3-2,0.7c-0.7,0.4-1.3,0.8-1.9,1.4c-0.5,0.6-1,1.2-1.4,2c-0.3,0.7-0.5,1.6-0.5,2.5
				c0,1.5,0.4,2.9,1.3,4c0.4,0.5,0.9,1,1.4,1.3c0,0,1.3,0.9,3.1,1.1l7.9,0.5l0.7,0c1.9,0,3.5,0.1,5,0.3c1.9,0.3,3.4,0.8,4.5,1.6
				c1.9,1.3,2.9,3.5,2.9,6.7c0,1.8-0.4,3.3-1.1,4.6c-0.8,1.3-1.8,2.4-3,3.3c-1.2,0.8-2.6,1.5-4.2,1.9c-1.6,0.4-3.2,0.6-4.8,0.6
				s-3.3-0.2-4.8-0.6c-1.5-0.4-2.8-1-3.9-1.8c-1-0.8-1.9-1.8-2.5-3.1c-0.6-1.3-0.9-2.8-0.9-4.6c0-2.3,0.3-4.2,1.3-5.5l-2.9-1.4
				c-0.3,0.3-0.6,0.6-0.9,0.9c-0.8,0.9-1.5,1.9-2,3.1c-0.5,1.2-0.7,2.4-0.7,3.8c0,3.6,1.5,6.4,4.6,8.4c3.1,2.1,7.2,3.1,12.5,3.1
				c3.4,0,6.4-0.5,8.9-1.5c2.5-1,4.5-2.3,6-3.8c1.6-1.5,2.7-3.3,3.5-5.2c0.8-1.9,1.1-3.8,1.1-5.7c0-1.4-0.3-2.7-0.8-3.8
				c-0.5-1.2-1.3-2.2-2.5-3.1c-1.1-0.9-2.5-1.6-4.3-2.2c-1.8-0.5-3.9-0.8-6.4-0.9c-1.5,0-3-0.1-4.5-0.1l-4.5-0.2
				c-1.9-0.1-3.1-0.4-3.9-1c-0.7-0.6-1-1.7-1-3c0-1.1,0.4-1.9,1.2-2.6c0.9-0.7,1.8-1,2.8-1c0.8,0,1.5,0,2.2,0.1
				c0.8,0,1.5,0.1,2.3,0.1c4.6,0,8.3-1.1,11.1-3.3c2.8-2.3,4.2-5.4,4.2-9.4c0-2-0.5-4-1.5-5.8c-1-1.9-2.7-3.6-4.2-4.7h12.6v31.1h5.7
				V38.8c0-0.1,0-0.3,0-0.4V38c0-3.6,1.5-6.9,3.9-9.1c1.4-1.4,3.1-2.4,4.9-2.9c1-0.2,1.7-0.2,2.9-0.1l0.7-3.7
				c-0.2,0-0.5-0.1-0.7-0.1C313.8,22,313.6,21.9,313.5,21.9L313.5,21.9z M282.9,39.7c-0.3,1.3-0.9,2.5-1.6,3.6
				c-0.7,1-1.6,1.8-2.8,2.5c-1.1,0.6-2.4,0.9-4,0.9c-3.2,0-5.5-1-7-2.9c-1.5-2-2.2-4.6-2.2-8s0.8-5.8,2.5-7.7c1.6-2,3.9-3,6.9-3
				c2.7,0,4.8,0.9,6.5,2.6c1.6,1.8,2.5,4.3,2.5,7.7C283.5,36.9,283.3,38.3,282.9,39.7L282.9,39.7z"/>
			<path d="M255.3,32.7c-0.1-0.4-0.2-0.8-0.4-1.1c-0.6-1.7-1.6-3.2-3-4.4c-1.4-1.3-3.1-2.3-5.1-3c-2-0.8-4.4-1.2-7.1-1.2
				c-5.9,0-10.3,1.6-13.4,4.8c-0.2,0.2-0.4,0.5-0.6,0.8c-0.1,0.2-0.3,0.4-0.4,0.6c-2.5,3.6-3.3,8.3-2.4,14c0.4,2.3,1.1,4.4,2.3,6.3
				c1.2,1.9,2.8,3.5,4.6,4.7c1.9,1.2,4,2.1,6.4,2.6c2.4,0.4,5,0.5,7.8,0.1c1-0.1,1.2-0.2,2.2-0.4c0,0,1.5-0.5,1.9-0.6
				c2.3-0.8,4.3-1.7,5.9-2.8l-1.1-1.9c-1.2,0.8-5.5,2.7-8.1,3c-2.7,0.3-5,0.1-6.9-0.5c-1.9-0.6-3.6-1.5-4.9-2.7
				c-1.3-1.2-2.4-2.7-3.1-4.4c-0.6-1.3-1-2.7-1.3-4.2l10.4-3.7L255.3,32.7L255.3,32.7z M228.1,39.4c-0.1-1.2-0.1-2.5,0-3.7
				c0.2-1.8,0.6-3.4,1.3-4.8c0.7-1.5,1.7-2.7,3-3.7c1.4-1,3.1-1.7,5.2-2c2.1-0.3,4-0.2,5.6,0.4c0.6,0.2,1.1,0.4,1.6,0.7
				c0.9,0.5,1.6,1.2,2.2,2c0.9,1,1.6,2.2,2.2,3.6L228.1,39.4z"/>
			<path d="M213.3,8.6v45c-4.6-4.4-44.3-45.2-44.3-45.2h-2.1v6.1v51.1h3.5V20.9L215,66.4h1.9l-0.1-57.7L213.3,8.6L213.3,8.6z"/>
		</g>
		<g>
			<path d="M127.5,54.1c1.8,1.3,3.8,2.3,6,2.8c2.3,0.5,4.5,0.8,6.7,0.8s4.5-0.3,6.7-0.8c2.2-0.6,4.2-1.5,6-2.8
				c1.8-1.4,3.2-3.2,4.3-5.3c1.1-2.2,1.7-4.9,1.7-8.1s-0.6-5.8-1.7-8c-1.1-2.2-2.5-4-4.3-5.4c-1.8-1.4-3.8-2.4-6-3
				c-2.2-0.6-4.4-1-6.7-1s-4.4,0.3-6.7,1c-2.2,0.6-4.2,1.6-6,3c-1.8,1.3-3.3,3.1-4.4,5.4c-1.1,2.2-1.6,4.8-1.6,8s0.5,5.8,1.6,8.1
				C124.3,51,125.7,52.7,127.5,54.1z M128.8,35.1c0.4-1.8,1.1-3.4,2-4.8c0.9-1.4,2.1-2.6,3.7-3.4c1.5-0.8,3.4-1.2,5.7-1.2
				s4.1,0.4,5.7,1.2c1.5,0.8,2.8,2,3.7,3.4c0.9,1.4,1.6,3,1.9,4.8c0.4,1.8,0.6,3.7,0.6,5.6s-0.2,3.8-0.6,5.6c-0.4,1.8-1,3.4-1.9,4.9
				c-0.9,1.4-2.2,2.5-3.7,3.3c-1.5,0.8-3.4,1.2-5.7,1.2s-4.2-0.4-5.7-1.2c-1.5-0.8-2.8-1.9-3.7-3.3c-0.9-1.4-1.6-3.1-2-4.9
				c-0.4-1.8-0.5-3.7-0.5-5.6S128.5,36.9,128.8,35.1z"/>
			<path d="M54.1,64.3c2.5-0.3,4.8-0.7,6.9-1.2c1.3-0.3,2.5-0.6,3.6-1V36.9H49.9V40h7.9v7.9l0,0v11.4h0c-0.9,0.5-2,0.9-3.3,1.2
				c-1.2,0.4-2.6,0.7-4.1,0.9c-1.4,0.2-2.9,0.4-4.5,0.5c-1.6,0.1-3.1,0.2-4.5,0.2c-4.8,0-9.1-0.7-13-2c-3.8-1.3-7-3.2-9.7-5.6
				c-2.6-2.5-4.6-5.5-6-9s-2.1-7.5-2.1-11.9c0-5,0.8-9.3,2.3-12.9c1.6-3.7,3.7-6.7,6.4-9c2.8-2.4,5.9-4.2,9.6-5.3
				c3.7-1.1,7.7-1.7,11.9-1.7c1,0,1.9,0,2.8,0.1c1.3,0.1,2.5,0.2,3.6,0.4c2.8,0.3,5.2,0.7,7.3,1.3c2.2,0.6,4.1,1.1,5.7,1.8
				c1.1,0.4,2.1,0.8,3,1.2l1.2-3.8l-1.7-0.7c-1.6-0.6-3.4-1.2-5.5-1.7c-2.1-0.5-4.5-1-7.2-1.3c-2.7-0.4-5.8-0.5-9.2-0.5
				c-6,0-11.6,0.7-16.6,2.2C19.3,4.8,15,7,11.6,9.7c-3.5,2.8-6.2,6.2-8.1,10.2c-1.9,4-2.9,8.5-2.9,13.6s0.9,10,2.8,14
				c1.9,4,4.5,7.4,7.9,10.1c3.4,2.7,7.6,4.7,12.4,6c3,0.8,6.3,1.3,9.8,1.6l13.4-0.1C49.3,64.9,51.7,64.6,54.1,64.3L54.1,64.3z"/>
			<path d="M106.7,24.6l-0.1,25.3c0,3,0.7,5.2,2.3,6.7c1.6,1.5,3.4,2.3,6.7,2.3c1,0,2-0.1,3.1-0.4c1.1-0.2,2-0.5,4.7-1.4l-0.4-1.3
				c-0.8,0.2-2.6,0.7-3.2,0.8c-0.7,0.1-1.2,0.1-1.6,0.1c-1.6,0-2.8-0.3-3.6-1c-0.8-0.6-1.5-1.5-1.9-2.5c-0.4-1.1-0.7-2.3-0.8-3.6
				c-0.1-1.3-0.1-2.7-0.1-4.1l0.1-21h5.7l1-3h-6.8v-8.9l-4.8,1.5v7.4h-5.6l0.1,3H106.7L106.7,24.6z"/>
			<path d="M86.9,56.6c1.9-0.8,4.4-2.3,6.4-4l0.2,4.7h5.2l0.2-24.5c-0.1-1.2-0.4-2.2-0.9-3.2c-0.7-1.3-1.5-2.4-2.7-3.2
				c-1.1-0.9-2.5-1.6-4.2-2.1c-1.6-0.5-3.4-0.8-5.4-0.8c-2.2,0-4.3,0.3-6.3,0.8c-2.1,0.6-4.3,1.6-6.7,3.2l0.6,2.3
				c2.2-1.4,4.3-2.3,6.2-2.8l0.5-0.1c0.4-0.1,0.8-0.2,1.2-0.2c0.9-0.2,1.8-0.2,2.8-0.2c1.6,0,3,0.3,4.1,0.8c1.1,0.5,2.1,1.1,2.8,1.9
				c0.7,0.8,1.2,1.7,1.6,2.8c0.3,1.1,0.5,2.2,0.5,3.3c0,0.7-0.1,1.3-0.2,1.7c-0.2,0.4-0.7,0.8-1.5,1.1c-0.8,0.3-2,0.7-3.7,1
				c-1.6,0.3-3.9,0.6-6.8,1c-3.6,0.5-6.4,1.5-8.4,3c-2,1.5-3,3.7-3,6.4c0,1.3,0.3,2.5,0.9,3.6c0.7,1,1.5,1.9,2.4,2.6
				c1,0.7,2.2,1.3,3.5,1.6s2.6,0.5,4,0.5C82.6,57.8,85,57.4,86.9,56.6L86.9,56.6z M75.7,48.5c0-1.3,0.3-2.3,0.8-3.2
				c0.6-0.8,1.3-1.5,2.3-2.1c1-0.5,2.1-1,3.2-1.3c1.2-0.3,9.7-1.8,10.7-2.1V50c-0.9,1.3-2.6,2.7-4.3,3.6c-1.7,1-3.6,1.5-5.6,1.5
				c-1.8,0-3.4-0.5-4.9-1.7C76.5,52.3,75.8,50.6,75.7,48.5L75.7,48.5z"/>
		</g>
	</g>
</g>
</svg>
