<?xml version="1.0" encoding="utf-8"?>
<!-- Generator: Adobe Illustrator 27.0.1, SVG Export Plug-In . SVG Version: 6.00 Build 0)  -->
<svg version="1.1" id="Layer_7" xmlns="http://www.w3.org/2000/svg" xmlns:xlink="http://www.w3.org/1999/xlink" x="0px" y="0px"
	 viewBox="0 0 501.4 423.9" style="enable-background:new 0 0 501.4 423.9;" xml:space="preserve">
<style type="text/css">
	.st0{fill:#FCEC72;}
	.st1{fill-rule:evenodd;clip-rule:evenodd;}
	.st2{fill-rule:evenodd;clip-rule:evenodd;fill:#FFFFFF;}
</style>
<g>
	<path class="st0" d="M275.8,176.1c0.1,0,0.1,0,0.2,0c-0.1,0-0.1,0-0.2,0.1C275.8,176.2,275.8,176.1,275.8,176.1L275.8,176.1z"/>
	<g>
		<path class="st1" d="M456.1,300.4l25.2,9.7C445,264,394.1,213.7,349,177.3c12.6-23.8,13.5-45.6,4.1-66.2
			c-6.1-13.4-25.7-57.9-49.9-93.3c-1.5-2.2-2.6-2.6-3.4,0.1c-5.4,17.4-9.3,41.6-10.3,48.3c-0.2,1.1-1,1.7-2,1.7
			c-15.5-0.9-55.3,12.3-66,23.7c-0.3,0.4-1.5,1-2.3,0c-11-13.7-32.8-30-45.9-37c-2.7-1.5-2.8,0.3-2.7,2c0.3,7.2,3.4,32.4,3.4,32.4
			c-49.5-27.8-166.5-77.2-295,10.8c-13.3,8.4-24.8,18.7-37.2,28.7c-41.9,33.7-108,30.6-115.7-8.9c-7.5-38.4,32.4-44,52.1-24.4
			c1.7,1.7,5.4,6.6,11.7,6.9c19.3,1.1,33.8-20.3,7.1-44.1c-42.4-37.8-124.3-0.8-110.4,70c9.6,49.1,50.9,68,97.9,62.9
			c-28.5,34.2-55,100.9-71.8,142.3l19.6-10l-8.3,25.9l18.8-16l-3.7,22.3c34.5-52.6,70-110.2,125.9-142.8c3.4,1.9,9.6,4.4,7.5,6.4
			c-63.6,57.8-101.8,119.8-131.1,168.3l19.6-10l-8.3,26l18.8-16l-3.9,25.2c12.5-19.1,6.8-12,45.1-52.8
			c40.6-43.2,115.2-77.8,149.4-90.6c74.5-27.9,159.7-21.3,250.7,8.3c89.2,29,168.5,73.8,228.4,137.1l-8-23.5l21.3,12.5l-12.7-24.1
			l21,6.4C410,325.6,321.1,251.9,288.4,235c0,0,21.6,0.7,28.7-9.9c31.3,17.2,62.6,36.8,140.1,112.4l-7.7-25.8l22.1,13L456.1,300.4
			L456.1,300.4z"/>
		<path class="st2" d="M268.2,145c-0.2,0.4-5.8,10.4-23.9,13.5c-14.1,2.4-24.9-5.4-26.1-6.4c-0.8-0.7-0.4-1.4,0.1-2.4
			c0.4-0.8,5.1-9.6,16.1-13.3c-1.2,2.7-1.2,6.1-0.1,9.8c1.9,6.4,6.3,10.8,11.9,9.2c5.6-1.6,7.6-8.2,5.8-14.7
			c-0.8-2.6-2.1-4.8-3.7-6.4c12.6,0.2,18.6,6.7,19.8,8.3C268.6,143.4,268.6,144.4,268.2,145"/>
		<path class="st2" d="M322.1,133.6c-16.2,8.8-26.7,4.4-27.2,4.3c-0.7-0.2-1.3-1-1.3-2c0-2,0.6-10.8,10.4-18.8
			c-0.3,2.2,0,4.8,1.1,7.3c2.5,6.2,8.2,10.1,13.6,7.9c5.4-2.2,6.2-8.4,3.6-14.6c-1.4-3.5-3.6-6.2-6.2-7.6
			c10.9-3.9,20.1,0.1,20.9,0.4c1,0.5,1.8,0.8,1.6,1.8C338.2,113.9,334.6,126.7,322.1,133.6"/>
	</g>
</g>
</svg>
