<?xml version="1.0" encoding="utf-8"?>
<!-- Generator: Adobe Illustrator 27.0.1, SVG Export Plug-In . SVG Version: 6.00 Build 0)  -->
<svg version="1.1" id="Capa_1" xmlns="http://www.w3.org/2000/svg" xmlns:xlink="http://www.w3.org/1999/xlink" x="0px" y="0px"
	 viewBox="0 0 380 194" style="enable-background:new 0 0 380 194;" xml:space="preserve">
<style type="text/css">
	.st0{fill-rule:evenodd;clip-rule:evenodd;}
	.st1{fill-rule:evenodd;clip-rule:evenodd;fill:#FFFFFF;}
</style>
<g id="Capa_1_00000020382466061377255890000007276101759349492102_">
	<g>
		<path class="st0" d="M366.9,137.4l11.9,4.6c-17.2-21.8-41.4-45.7-62.8-62.9c6-11.3,6.4-21.6,1.9-31.4
			c-2.9-6.3-12.2-27.4-23.7-44.2c-0.7-1-1.2-1.2-1.6,0c-2.6,8.2-4.4,19.7-4.9,22.9c-0.1,0.5-0.5,0.8-1,0.8
			c-7.3-0.4-26.2,5.8-31.3,11.2c-0.2,0.2-0.7,0.5-1.1,0c-5.2-6.5-15.6-14.2-21.8-17.5c-1.3-0.7-1.3,0.1-1.3,0.9
			c0.1,3.4,1.6,15.3,1.6,15.3c-23.4-13.2-78.9-36.6-139.9,5.1c-6.3,4-11.8,8.9-17.7,13.6c-19.9,16-51.2,14.5-54.9-4.2
			C17.1,33.4,36,30.7,45.3,40c0.8,0.8,2.5,3.1,5.5,3.3c9.1,0.5,16-9.6,3.4-20.9C34.2,4.5-4.7,22,1.9,55.6
			c4.6,23.3,24.1,32.2,46.4,29.8c-13.5,16.2-26.1,47.8-34,67.4l9.3-4.7l-3.9,12.3l8.9-7.6l-1.7,10.6c16.4-24.9,33.2-52.3,59.7-67.7
			c1.6,0.9,4.6,2.1,3.6,3c-30.2,27.4-48.2,56.8-62.2,79.8l9.3-4.7l-3.9,12.3l8.9-7.6l-1.9,12c6-9.1,3.2-5.7,21.4-25
			c19.3-20.5,54.6-36.9,70.9-43c35.3-13.2,75.7-10.1,118.9,3.9c42.3,13.8,79.9,35,108.3,65l-3.8-11.1l10.1,5.9l-6-11.4l10,3
			c-25-28.5-67.1-63.5-82.6-71.4c0,0,10.2,0.3,13.6-4.7c14.8,8.1,29.7,17.4,66.5,53.3l-3.7-12.2l10.5,6.2L366.9,137.4L366.9,137.4z"
			/>
		<path class="st1" d="M277.8,63.7c-0.1,0.2-2.7,4.9-11.4,6.4c-6.7,1.2-11.8-2.6-12.3-3c-0.4-0.3-0.2-0.7,0.1-1.1
			c0.2-0.4,2.4-4.6,7.6-6.3c-0.6,1.3-0.6,2.9-0.1,4.6c0.9,3.1,3,5.1,5.7,4.3c2.7-0.8,3.6-3.9,2.7-7c-0.4-1.2-1-2.3-1.8-3
			c6,0.1,8.8,3.2,9.4,3.9C278,62.9,278,63.4,277.8,63.7"/>
		<path class="st1" d="M303.3,58.3c-7.7,4.2-12.7,2.1-12.9,2c-0.3-0.1-0.6-0.5-0.6-0.9c0-0.9,0.3-5.1,4.9-8.9
			c-0.1,1.1,0,2.2,0.5,3.5c1.2,3,3.9,4.8,6.5,3.8c2.6-1.1,2.9-4,1.7-6.9c-0.7-1.7-1.7-2.9-2.9-3.6c5.2-1.9,9.5,0,9.9,0.2
			c0.5,0.2,0.8,0.4,0.8,0.8C311,48.9,309.3,55,303.3,58.3"/>
	</g>
</g>
</svg>
